<?xml version="1.0" standalone="no"?>
<!DOCTYPE svg PUBLIC "-//W3C//DTD SVG 20010904//EN"
 "http://www.w3.org/TR/2001/REC-SVG-20010904/DTD/svg10.dtd">
<svg version="1.0" xmlns="http://www.w3.org/2000/svg"
 width="700.000000pt" height="700.000000pt" viewBox="0 0 700.000000 700.000000"
 preserveAspectRatio="xMidYMid meet">
<metadata>
Created by potrace 1.14, written by Peter Selinger 2001-2017
</metadata>
<g transform="translate(0.000000,700.000000) scale(0.100000,-0.100000)"
fill="#000000" stroke="none">
<path d="M3397 6984 c-1 -2 -34 -4 -72 -5 -72 -1 -321 -25 -365 -34 -14 -3
-45 -8 -70 -11 -25 -3 -53 -7 -62 -10 -9 -3 -27 -7 -40 -9 -215 -40 -526 -134
-713 -215 -138 -60 -182 -81 -285 -134 -63 -32 -127 -67 -142 -77 -14 -11 -29
-19 -33 -19 -28 0 -413 -276 -560 -401 -60 -52 -339 -333 -363 -366 l-20 -29
191 -191 192 -192 82 98 c75 88 270 288 333 341 14 12 37 32 53 46 98 87 361
272 487 343 317 177 713 316 1015 357 28 3 58 8 69 10 140 26 617 26 776 -1
179 -29 229 -39 312 -60 355 -90 714 -254 1003 -459 78 -55 177 -128 185 -136
3 -3 51 -44 107 -93 116 -100 263 -251 371 -382 41 -49 76 -92 78 -94 2 -2 94
87 205 198 196 196 202 203 189 226 -18 33 -285 304 -380 386 -364 313 -751
539 -1190 696 -110 39 -297 96 -355 109 -11 2 -29 6 -40 8 -181 41 -230 50
-321 61 -22 3 -55 7 -74 10 -74 10 -108 14 -208 20 -106 8 -350 13 -355 9z"/>
<path d="M3378 6135 c-2 -1 -46 -5 -98 -9 -52 -3 -111 -8 -130 -11 -129 -21
-170 -30 -300 -62 -80 -19 -157 -42 -172 -49 -15 -8 -35 -16 -45 -17 -10 -2
-31 -9 -46 -15 -16 -7 -31 -12 -34 -12 -3 0 -24 -9 -47 -19 -82 -38 -141 -65
-146 -66 -5 -1 -40 -19 -140 -73 -291 -157 -675 -484 -872 -743 l-27 -35 159
-159 c93 -93 163 -155 168 -149 5 5 24 29 43 54 154 203 401 433 620 578 73
48 295 172 309 172 3 0 28 11 56 24 129 62 342 121 524 146 125 16 153 19 193
20 36 0 39 3 61 53 13 28 29 76 36 105 8 28 17 52 20 52 4 0 12 -26 19 -57 7
-32 20 -79 29 -105 14 -40 21 -48 42 -49 14 0 32 -2 40 -3 8 -2 44 -7 80 -11
36 -4 72 -8 80 -10 8 -2 33 -6 55 -10 234 -38 562 -175 797 -332 239 -161 464
-373 650 -615 l43 -55 168 168 c110 111 166 173 161 181 -18 31 -159 191 -240
273 -325 330 -705 571 -1114 706 -81 26 -158 50 -171 53 -13 3 -42 10 -64 15
-22 6 -56 13 -75 16 -19 3 -53 10 -75 15 -22 4 -67 11 -100 15 -33 4 -76 9
-95 11 -41 6 -357 13 -362 9z"/>
<path d="M3095 5300 c-426 -112 -786 -364 -1120 -785 -30 -38 -55 -74 -55 -79
0 -11 301 -316 311 -316 4 0 25 25 48 55 60 79 200 224 298 307 48 40 108 104
137 144 28 40 126 175 217 300 202 279 289 406 276 404 -1 -1 -51 -14 -112
-30z"/>
<path d="M3784 5314 c10 -25 194 -301 326 -489 74 -104 151 -214 172 -244 21
-30 52 -66 70 -80 101 -81 320 -314 394 -420 2 -2 78 71 169 163 l167 166 -38
52 c-240 333 -588 620 -914 755 -150 63 -355 120 -346 97z"/>
<path d="M3491 5210 c-33 -106 -134 -298 -238 -453 -48 -72 -90 -137 -93 -143
-3 -5 -11 -17 -18 -25 -22 -25 -452 -619 -556 -769 -88 -126 -148 -216 -241
-360 -35 -53 -125 -201 -125 -204 0 -2 -22 -41 -48 -87 -58 -100 -184 -349
-177 -349 3 0 -1 -10 -9 -22 -49 -75 -191 -497 -221 -653 -46 -250 -50 -287
-50 -535 0 -175 4 -248 18 -330 72 -406 303 -737 677 -970 212 -132 511 -241
760 -277 19 -2 62 -9 95 -13 57 -9 439 -5 497 4 16 2 47 7 70 11 24 4 54 8 68
11 206 32 410 95 585 179 97 47 261 145 275 165 3 4 12 11 21 16 32 17 144
128 207 203 219 262 331 613 326 1021 -1 79 -11 211 -19 263 -2 12 -6 39 -9
60 -66 439 -330 1019 -740 1627 -39 58 -75 113 -81 122 -15 25 -410 587 -501
713 -50 70 -174 257 -174 264 0 4 -9 16 -20 26 -11 10 -20 21 -20 26 0 4 -19
38 -42 75 -88 146 -181 366 -190 454 -2 16 -11 0 -27 -50z"/>
</g>
</svg>
